<svg xmlns="http://www.w3.org/2000/svg" data-name="Layer 1" viewBox="0 0 64 64"><path fill="#eee" d="M55,18H42V5a1,1,0,0,0-1-1H13a1,1,0,0,0-1,1V33a1,1,0,0,0,1,1H40V50H13a1,1,0,0,0-1,1v8a1,1,0,0,0,1,1H55a1,1,0,0,0,1-1V19A1,1,0,0,0,55,18Z"/><rect width="34" height="20" x="8" y="32" fill="#959CBD" rx="1" ry="1"/><path fill="#e0e0e0" d="M55.71,18.29l-14-14A1,1,0,0,0,40,5V19a1,1,0,0,0,1,1H55a1,1,0,0,0,.71-1.71Z"/><path fill="#fff" d="M19 43.32h1.8a3.15 3.15 0 0 1-.6 1.52A3.22 3.22 0 0 1 19 45.8a3.86 3.86 0 0 1-1.61.35A3.58 3.58 0 0 1 14.62 45a4.19 4.19 0 0 1-1.08-3 4.29 4.29 0 0 1 1.06-3 3.47 3.47 0 0 1 2.69-1.18A3.52 3.52 0 0 1 20 39a3.43 3.43 0 0 1 .79 1.76H19a1.57 1.57 0 0 0-.59-.88 1.91 1.91 0 0 0-1.1-.31 1.86 1.86 0 0 0-1.49.68A2.66 2.66 0 0 0 15.26 42a2.6 2.6 0 0 0 .58 1.75 1.88 1.88 0 0 0 1.5.67A1.66 1.66 0 0 0 19 43.32zM22.35 43.62H24a1.37 1.37 0 0 0 1.49 1.08 1.42 1.42 0 0 0 .88-.25.8.8 0 0 0 .33-.67.77.77 0 0 0-.55-.78q-.11 0-1-.3a5.89 5.89 0 0 1-1.78-.7 2 2 0 0 1-.82-1.7 2.27 2.27 0 0 1 .75-1.78 2.85 2.85 0 0 1 2-.67 3.15 3.15 0 0 1 2 .62 2 2 0 0 1 .82 1.6H26.45a1 1 0 0 0-1.13-.78 1.25 1.25 0 0 0-.77.22.71.71 0 0 0-.29.59.65.65 0 0 0 .36.62 5.64 5.64 0 0 0 1.25.36 4.82 4.82 0 0 1 1.58.56 2.17 2.17 0 0 1 1 1.91 2.38 2.38 0 0 1-1.13 2.12 3.41 3.41 0 0 1-1.87.46A3 3 0 0 1 22.83 45 2.9 2.9 0 0 1 22.35 43.62zM32.26 46l-3-8h1.79L33 43.4 34.67 38h1.75l-2.65 8z"/></svg>